<svg width="36" height="63" viewBox="0 0 36 63" fill="none" xmlns="http://www.w3.org/2000/svg">
<path d="M31.2015 0.347656C31.9022 0.643998 32.6594 0.833462 33.2937 1.25611C34.9712 2.37347 35.8743 4.0754 35.9827 6.27772C35.9913 6.45909 35.9971 6.64046 35.9971 6.82344C35.9971 23.1902 35.9957 39.5554 36 55.9222C36 58.416 35.0926 60.3252 33.1781 61.6077C32.2562 62.2247 31.239 62.4255 30.1727 62.4255C22.058 62.4174 13.9434 62.4239 5.83022 62.4158C5.3823 62.4158 4.9286 62.3802 4.48646 62.2943C2.08212 61.8328 0.153162 59.3811 0.0274548 56.6477C0.0144506 56.3659 0.00722606 56.0825 0.00722606 55.7991C0.00433624 39.5149 0.0101159 23.2291 1.49882e-06 6.94327C-0.00144341 4.16609 1.04178 2.13056 3.27706 0.909571C3.75389 0.648856 4.29139 0.530643 4.80145 0.347656C13.601 0.347656 22.4005 0.347656 31.2015 0.347656ZM30.4096 43.7544V6.5773H5.57736V43.756H30.4082L30.4096 43.7544ZM18.0051 56.259V56.2153C18.5108 56.2153 19.0165 56.2396 19.5208 56.2104C21.1362 56.1181 22.1534 54.9052 22.1433 53.1094C22.1346 51.4074 20.9975 50.0779 19.4615 50.0261C18.4718 49.9921 17.4777 49.9873 16.4879 50.0326C15.2019 50.0925 13.968 51.4625 13.8697 52.8729C13.7599 54.4486 14.6673 55.838 16.0689 56.1214C16.7003 56.2493 17.3592 56.2169 18.0051 56.259Z" fill="#FAE2CB"/>
</svg>
