<svg width="19" height="19" viewBox="0 0 19 19" fill="none" xmlns="http://www.w3.org/2000/svg">
<path d="M10.0001 5.15065C7.44561 5.15065 5.38514 7.21112 5.38514 9.76562C5.38514 12.3201 7.44561 14.3806 10.0001 14.3806C12.5546 14.3806 14.6151 12.3201 14.6151 9.76562C14.6151 7.21112 12.5546 5.15065 10.0001 5.15065ZM10.0001 12.766C8.34932 12.766 6.99977 11.4204 6.99977 9.76562C6.99977 8.11082 8.34531 6.76529 10.0001 6.76529C11.6549 6.76529 13.0004 8.11082 13.0004 9.76562C13.0004 11.4204 11.6509 12.766 10.0001 12.766ZM15.8803 4.96188C15.8803 5.56034 15.3983 6.0383 14.8039 6.0383C14.2054 6.0383 13.7274 5.55632 13.7274 4.96188C13.7274 4.36743 14.2094 3.88545 14.8039 3.88545C15.3983 3.88545 15.8803 4.36743 15.8803 4.96188ZM18.9369 6.05437C18.8686 4.61244 18.5392 3.33519 17.4829 2.28286C16.4305 1.23054 15.1533 0.901182 13.7114 0.828885C12.2253 0.744538 7.77095 0.744538 6.28484 0.828885C4.84693 0.897166 3.56967 1.22652 2.51333 2.27885C1.45699 3.33117 1.13165 4.60842 1.05935 6.05035C0.975007 7.53646 0.975007 11.9908 1.05935 13.4769C1.12763 14.9188 1.45699 16.1961 2.51333 17.2484C3.56967 18.3007 4.84291 18.6301 6.28484 18.7024C7.77095 18.7867 12.2253 18.7867 13.7114 18.7024C15.1533 18.6341 16.4305 18.3047 17.4829 17.2484C18.5352 16.1961 18.8646 14.9188 18.9369 13.4769C19.0212 11.9908 19.0212 7.54048 18.9369 6.05437ZM17.017 15.0714C16.7037 15.8587 16.0972 16.4652 15.3059 16.7825C14.1211 17.2524 11.3095 17.144 10.0001 17.144C8.69073 17.144 5.87515 17.2484 4.6943 16.7825C3.90706 16.4692 3.30057 15.8627 2.98326 15.0714C2.51333 13.8866 2.62178 11.075 2.62178 9.76562C2.62178 8.45624 2.51735 5.64067 2.98326 4.45981C3.29655 3.67258 3.90304 3.06608 4.6943 2.74878C5.87917 2.27885 8.69073 2.38729 10.0001 2.38729C11.3095 2.38729 14.1251 2.28286 15.3059 2.74878C16.0932 3.06207 16.6997 3.66856 17.017 4.45981C17.4869 5.64468 17.3784 8.45624 17.3784 9.76562C17.3784 11.075 17.4869 13.8906 17.017 15.0714Z" fill="#F59A1B"/>
</svg>
