<svg width="19" height="19" viewBox="0 0 19 19" fill="none" xmlns="http://www.w3.org/2000/svg">
<path d="M9.50206 5.32204C6.94756 5.32204 4.88709 7.38251 4.88709 9.93701C4.88709 12.4915 6.94756 14.552 9.50206 14.552C12.0566 14.552 14.117 12.4915 14.117 9.93701C14.117 7.38251 12.0566 5.32204 9.50206 5.32204ZM9.50206 12.9373C7.85128 12.9373 6.50173 11.5918 6.50173 9.93701C6.50173 8.28221 7.84726 6.93668 9.50206 6.93668C11.1569 6.93668 12.5024 8.28221 12.5024 9.93701C12.5024 11.5918 11.1528 12.9373 9.50206 12.9373ZM15.3822 5.13326C15.3822 5.73172 14.9003 6.20969 14.3058 6.20969C13.7074 6.20969 13.2294 5.72771 13.2294 5.13326C13.2294 4.53882 13.7114 4.05684 14.3058 4.05684C14.9003 4.05684 15.3822 4.53882 15.3822 5.13326ZM18.4388 6.22575C18.3705 4.78383 18.0412 3.50658 16.9848 2.45425C15.9325 1.40192 14.6552 1.07257 13.2133 1.00027C11.7272 0.915925 7.2729 0.915925 5.78679 1.00027C4.34888 1.06855 3.07163 1.39791 2.01528 2.45023C0.958942 3.50256 0.633604 4.77981 0.561307 6.22174C0.47696 7.70785 0.47696 12.1622 0.561307 13.6483C0.629588 15.0902 0.958942 16.3674 2.01528 17.4198C3.07163 18.4721 4.34486 18.8015 5.78679 18.8738C7.2729 18.9581 11.7272 18.9581 13.2133 18.8738C14.6552 18.8055 15.9325 18.4761 16.9848 17.4198C18.0372 16.3674 18.3665 15.0902 18.4388 13.6483C18.5232 12.1622 18.5232 7.71186 18.4388 6.22575ZM16.5189 15.2428C16.2056 16.0301 15.5991 16.6366 14.8079 16.9539C13.623 17.4238 10.8114 17.3153 9.50206 17.3153C8.19268 17.3153 5.37711 17.4198 4.19625 16.9539C3.40901 16.6406 2.80252 16.0341 2.48522 15.2428C2.01528 14.058 2.12373 11.2464 2.12373 9.93701C2.12373 8.62763 2.0193 5.81205 2.48522 4.6312C2.7985 3.84396 3.405 3.23747 4.19625 2.92016C5.38112 2.45023 8.19268 2.55868 9.50206 2.55868C10.8114 2.55868 13.627 2.45425 14.8079 2.92016C15.5951 3.23345 16.2016 3.83995 16.5189 4.6312C16.9888 5.81607 16.8804 8.62763 16.8804 9.93701C16.8804 11.2464 16.9888 14.062 16.5189 15.2428Z" fill="white"/>
</svg>
