<svg width="22" height="22" viewBox="0 0 22 22" fill="none" xmlns="http://www.w3.org/2000/svg">
<path d="M18.5047 3.48857C16.5006 1.51982 13.8316 0.437012 10.9951 0.437012C5.14055 0.437012 0.376525 5.10576 0.376525 10.8433C0.376525 12.6761 0.864407 14.4667 1.79234 16.0464L0.285645 21.437L5.91543 19.9886C7.46517 20.8183 9.21103 21.2542 10.9904 21.2542H10.9951C16.845 21.2542 21.7142 16.5854 21.7142 10.8479C21.7142 8.06826 20.5089 5.45732 18.5047 3.48857ZM10.9951 19.5011C9.40714 19.5011 7.85261 19.0839 6.49897 18.2964L6.1785 18.1089L2.83985 18.9667L3.72952 15.7745L3.51906 15.4464C2.63418 14.0683 2.17021 12.4792 2.17021 10.8433C2.17021 6.07607 6.13067 2.19482 10.9999 2.19482C13.358 2.19482 15.5726 3.09482 17.2372 4.73076C18.9017 6.3667 19.9253 8.53701 19.9205 10.8479C19.9205 15.6198 15.8596 19.5011 10.9951 19.5011ZM15.8357 13.0229C15.5726 12.8917 14.2668 12.2636 14.0229 12.1792C13.7789 12.0901 13.602 12.0479 13.425 12.3104C13.248 12.5729 12.741 13.1542 12.5832 13.3323C12.4301 13.5058 12.2723 13.5292 12.0092 13.3979C10.4499 12.6339 9.42627 12.0339 8.39789 10.3042C8.12525 9.84482 8.67053 9.87764 9.17754 8.88389C9.26364 8.71045 9.22059 8.56045 9.15363 8.4292C9.08666 8.29795 8.55573 7.01826 8.33571 6.49795C8.12047 5.9917 7.90044 6.06201 7.73781 6.05264C7.58475 6.04326 7.40777 6.04326 7.2308 6.04326C7.05382 6.04326 6.76683 6.10889 6.52289 6.3667C6.27895 6.6292 5.59496 7.25732 5.59496 8.53701C5.59496 9.8167 6.54681 11.0542 6.67595 11.2276C6.80988 11.4011 8.54617 14.0261 11.2104 15.1558C12.8941 15.8683 13.5541 15.9292 14.396 15.8073C14.9078 15.7323 15.9649 15.1792 16.1849 14.5698C16.4049 13.9604 16.4049 13.4401 16.3379 13.3323C16.2758 13.2151 16.0988 13.1495 15.8357 13.0229Z" fill="#34201F"/>
</svg>
